<svg viewBox="0 0 720 134.323" preserveAspectRatio="xMidYMid meet" style="width: 100%; vertical-align: bottom">
    <g>
        <g>
            <polygon style="fill:#B30838;" points="108.473,20.37 112.667,0 22.335,0 9.949,56.167 0,100.956 93.043,100.956 97.703,79.578     46.291,79.578 51.023,57.794 94.661,57.794 95.002,56.167 99.201,37.422 55.761,37.422 59.412,20.37   "/>
            <polygon style="fill:#B30838;" points="353.894,11.098 344.08,56.167 334.542,100.956 371.561,100.956 381.563,56.167     391.516,11.098   "/>
            <polygon style="fill:#B30838;" points="482.392,29.1 486.787,11.098 405.724,11.098 395.913,56.167 386.1,100.956     423.522,100.956 431.914,62.669 468.791,62.669 470.214,56.167 472.446,45.604 435.903,45.604 439.494,29.1   "/>
            <path style="fill:#B30838;" d="M640.864,53.053l47.841-41.955h-36.542L628.56,34.305l-14.419-23.208h-47.572l29.232,45.069v0.133    l-30.176,27.679l-3.256-27.812l-5.614-45.069h-45.062l-31.808,45.069l-31.669,44.789H474.2l13.465-19.546h38.913l1.952,19.546    h55.638l26.178-26.991l15.424,26.991h46.356l-29.025-44.789L640.864,53.053z M500.385,62.12l4.194-5.954l16.176-24.362    l2.705,24.362l0.545,5.954H500.385z"/>
        </g>
        <path style="fill-rule:evenodd;clip-rule:evenodd;fill:#B30838;" d="M302.942,11.166l-14.379,60.395   C285.534,94.116,254.3,90.65,259.063,74.6l14.104-63.434h-37.707l-0.009-0.065l-11.38,52.589l33.322,39.805   c41.582,4.067,61.974-4.822,67.176-23.262l15.376-69.067H302.942z"/>
        <path style="fill-rule:evenodd;clip-rule:evenodd;fill:#B30838;" d="M110.092,44.005c4.952-17.357,13.41-29.418,25.127-32.956   c17.645-6.545,50.319-5.331,66.816-0.019c17.639,6.447,22.546,13.461,14.205,47.037h-30.702l62.954,76.257h-42.776l-27.118-33.189   c-22.124,4.265-34.483,3.83-47.773,1.025c-16.41-3.587-24.082-7.099-25.801-22.377C104.461,72.936,107.15,54.292,110.092,44.005z    M183.579,40.548c4.125-20.824-28.623-21.916-34.191-3.833c-3.515,11.169-6.246,20.415-9.185,33.977   c-4.336,22.341,31.017,23.214,37.094-0.289C180.806,58.637,181.215,52.3,183.579,40.548"/>
        <g>
            <path style="fill:#B30838;" d="M709.83,8.325c5.675,0,10.17,4.589,10.17,10.346c0,5.818-4.494,10.378-10.215,10.378    c-5.649,0-10.255-4.56-10.255-10.378c0-5.756,4.605-10.346,10.255-10.346H709.83z M709.785,9.911c-4.56,0-8.27,3.931-8.27,8.76    c0,4.903,3.71,8.766,8.315,8.766c4.605,0.068,8.289-3.863,8.289-8.727c0-4.868-3.684-8.798-8.289-8.798H709.785z M707.865,24.683    h-1.848V13.144c0.979-0.13,1.881-0.295,3.256-0.295c1.764,0,2.912,0.389,3.6,0.885c0.694,0.519,1.057,1.294,1.057,2.403    c0,1.521-1.012,2.423-2.258,2.792v0.094c1.012,0.204,1.713,1.103,1.953,2.818c0.259,1.787,0.538,2.475,0.713,2.841h-1.92    c-0.278-0.366-0.545-1.427-0.784-2.941c-0.266-1.469-1.006-2.018-2.484-2.018h-1.284V24.683z M707.865,18.287h1.323    c1.518,0,2.815-0.548,2.815-1.971c0-1.009-0.746-2.03-2.815-2.03c-0.596,0-1.018,0.048-1.323,0.097V18.287z"/>
        </g>
    </g>
</svg>