<?xml version="1.0" encoding="utf-8"?>
<!-- Generator: Adobe Illustrator 19.1.0, SVG Export Plug-In . SVG Version: 6.00 Build 0)  -->
<svg version="1.1" id="Layer_1" xmlns="http://www.w3.org/2000/svg" xmlns:xlink="http://www.w3.org/1999/xlink" x="0px" y="0px"
	 viewBox="0 0 512 512" enable-background="new 0 0 512 512" xml:space="preserve">
<g>
	<path d="M6,220.9l110.2,0c4.5,0,6.6,5.4,3.6,8.8c-0.1,0.1-44.5,49.3-49.9,56.9c-0.4,0.6-0.9,1.1-1.4,1.6c-4.3,3.5-10.6,3.5-14.9,0
		c-0.6-0.4-1-1-1.4-1.6c-5.4-7.6-49.8-56.8-49.9-56.9C-0.6,226.3,1.5,220.9,6,220.9z"/>
	<g>
		<path d="M292.3,121.7c-30.6,0-55.2,24.9-55.2,55.6v0c0,30.1,23.4,55.9,53.5,56.8c31.7,0.9,57.3-24.4,57.3-55.5v-1.3
			C347.8,146.6,323.2,121.7,292.3,121.7z"/>
		<g>
			<path d="M246.2,385.9l-0.6-0.6c-11.5-11.5-11.5-30.2,0-41.8l213.3-213.3c11.5-11.5,30.2-11.5,41.8,0l0.6,0.6
				c11.5,11.5,11.5,30.2,0,41.8L288,385.9C276.4,397.5,257.7,397.5,246.2,385.9z"/>
			<path d="M454.2,282c-30.6,0-55.2,24.9-55.2,55.6v0c0,30.1,23.4,55.9,53.5,56.8c31.7,0.9,57.3-24.4,57.3-55.5v-1.3
				C509.8,306.9,485.2,282,454.2,282z"/>
		</g>
	</g>
</g>
</svg>
