<?xml version="1.0" encoding="utf-8"?>
<!-- Generator: Adobe Illustrator 19.1.0, SVG Export Plug-In . SVG Version: 6.00 Build 0)  -->
<svg version="1.1" id="Layer_1" xmlns="http://www.w3.org/2000/svg" xmlns:xlink="http://www.w3.org/1999/xlink" x="0px" y="0px"
	 viewBox="0 0 512 512" enable-background="new 0 0 512 512" xml:space="preserve">
<g>
	<path d="M289.9,371.9L289.9,371.9c-13.1,21.5-41.2,28.3-62.7,15.1c0,0-228-196.9-226.2-199.9l3.7,0c1.9-3,270,122.1,270,122.1
		C296.2,322.4,303,350.4,289.9,371.9z"/>
	<g>
		<path d="M37.7,250.1c-14.2,26-24,54.8-28.4,85.3c-2.7,19.1,12.1,36.2,31.4,36.2h0.1c15.9,0,29-11.8,31.3-27.6
			c2.6-18,7.8-35.1,15.1-51.1C78,285,59.9,269.3,37.7,250.1z"/>
		<path d="M510.6,334c-18.2-122.1-123.4-215.7-250.6-215.7c-70,0-133.4,28.5-179.2,74.4c35,16.2,60.2,28,60.2,28
			c0.7,0.4,1.3,0.9,2,1.4c32.3-25.3,72.9-40.4,117.1-40.4c95.8,0,175,70.9,188.1,163.1c2.5,18,20.2,30.4,38.9,26
			C503.3,366.8,513.1,350.4,510.6,334z"/>
	</g>
</g>
</svg>
