<?xml version="1.0" encoding="utf-8"?>
<!-- Generator: Adobe Illustrator 19.1.0, SVG Export Plug-In . SVG Version: 6.00 Build 0)  -->
<svg version="1.1" id="Layer_1" xmlns="http://www.w3.org/2000/svg" xmlns:xlink="http://www.w3.org/1999/xlink" x="0px" y="0px"
	 viewBox="0 0 512 512" enable-background="new 0 0 512 512" xml:space="preserve">
<g>
	<path d="M387.5,289.5c-1-2.3-6.4-4.4-9.4,1.5l-17,26.7c-5.3,8.3-14.3,13.5-24.1,13.9l-31.6,1.4c-1.6,0.1-3.2,0.5-4.5,1.2l-3.2,1.6
		c-0.8,0.4-1.5,1.1-1.9,2l-30.1,66.8c-0.5,1.1-0.5,2.3,0,3.4l42.7,94.6c4.4,9.7,17.6,10.9,23.7,2.2l33-47.4
		c3.6-4.9,9.1-9.4,12.3-8.1c0.3,0.1,0.6,0.2,0.9,0.2l61.6,4.2c10.1,0.3,17.1-10.1,13-19.3L387.5,289.5z M383.6,284.1"/>
	<path d="M259,352.2c-4.8,0-9.6-1.2-13.9-3.4l-7.9-4.1L217,334.2c-1.4-0.7-3-1.1-4.5-1.2l-31.6-1.4c-9.8-0.4-18.8-5.6-24.1-13.9
		l-17-26.7c-0.9-1.4-2-2.5-3.3-3.3l0,0c-4.6-2.9-10.7-1.1-13,3.9L59,434.5c-4.1,9.1,2.6,19.3,12.4,19.3H72l63.1-2.2h0.5
		c4.5,0,8.7,2.2,11.2,5.9l33,47.4c2.7,3.9,7,5.9,11.2,5.9c5.1,0,10.1-2.8,12.5-8l52.4-116.2l17-37.6l-0.1,0.1
		C268.6,351,263.8,352.2,259,352.2L259,352.2z M259,352.2"/>
	<path d="M410.1,134.1"/>
	<path d="M424.5,162.2c-7.8-15.2-16.9-28.8-17.8-46.1c-0.4-8.1,0.3-16.7-1.1-24.6c-1.8-10.4-10.4-13.8-18.5-19
		c-6.8-4.3-15.1-8.4-20.5-14.4c-6.3-7-10.6-16.4-15.8-24.3c-11-16.6-26.9-11.4-44.9-13.2c-16.7-1.7-30.8-19.2-47-19.2
		c-16.3,0-30.3,17.5-47,19.2c-9.2,0.9-18.6,0-27.8,1.2c-9.1,1.2-12.4,4.9-17.1,12c-4.5,6.9-8.5,14.5-13.4,21.1
		c-5.9,7.9-14.6,12.4-22.9,17.6c-8.2,5.2-16.3,8.5-18.5,18.7c-1.9,8.5-0.7,18.5-1.2,27.2c-1,17.3-12.6,28.2-17.8,44
		c-5.8,17.4,15.6,35,17.6,52.5c1.9,16.1-3.7,34.5,11.4,44.6c15.2,10.2,27.5,17,37.6,32.8c4.1,6.4,8.5,17.3,15.4,21.3
		c6.9,4,18.7,2.4,26.2,2.7c18.7,0.8,30.5,7.9,47,16c15.6,7.7,28.2-4.5,42.3-11.2c16.7-7.9,43.9,1.7,56.5-12.1
		c6.3-7,10.1-16.8,15.6-24.5c5-7.1,11-11.4,18.2-16c7.6-4.9,20.7-10.1,24-19.2c3-8.6,1.2-20.4,1.7-29.4c0.5-9.4,3.2-16.7,7.5-25
		C418.5,186.5,429.7,172.1,424.5,162.2z M397.5,173.8c-6.4,12.3-14.1,23.7-15,37.7c-0.4,6.9,0.5,14.7-0.9,21.5
		c-2,9.4-9.9,12.4-17.4,17.2c-13,8.3-19.5,17.1-27.8,30c-9.5,15-22.5,10.4-38.3,12.2c-13.7,1.6-23.6,13.8-36.7,15.8
		c-13.8,2.1-27.1-13.9-41-15.7c-13.5-1.8-27.9,3-37.1-8.8c-10.1-13-14.3-23.6-28.7-32.7c-4.2-2.7-9.6-5.1-13.4-8.5
		c-6.7-6-5.5-14.1-5.9-22.4c-0.3-8-0.1-15.4-3.2-23c-2.7-6.6-6.9-12.8-10-19.2c-7.1-14.8,4.4-24.3,9.9-37.9
		c5.4-13.4-2.1-35.6,9.2-45.5c10.2-8.9,22.8-12.1,30.8-23.5c4.3-6.1,7.4-13.2,12-18.9c5.5-6.8,11.1-6.5,19.2-6.8
		c7.1-0.3,15.1,0.4,22.1-1.5c7.7-2.1,15.1-7.2,22.1-10.8c15-7.8,23.6,1.1,37.7,7.8c13.7,6.5,37.5-1.3,47.6,10.3
		c5.1,5.8,8.2,13.7,12.7,20c4.6,6.5,9.7,10.1,16.3,14.3c5.8,3.7,16.1,8,19,14.8c3.1,7.1,1.2,17.8,1.7,25.4c0.5,8.5,3.2,15,7,22.5
		C393.2,154.9,401.7,165.8,397.5,173.8z"/>
	<path d="M385.4,139.7"/>
</g>
</svg>
