<?xml version="1.0" encoding="UTF-8" ?>
<!DOCTYPE svg PUBLIC "-//W3C//DTD SVG 1.1//EN" "http://www.w3.org/Graphics/SVG/1.1/DTD/svg11.dtd">
<svg width="739pt" height="857pt" viewBox="0 0 739 857" version="1.1" xmlns="http://www.w3.org/2000/svg">
<path fill="#fefefe" d=" M 0.00 0.00 L 739.00 0.00 L 739.00 57.62 C 738.48 56.58 737.55 54.59 736.10 55.38 C 735.32 57.10 737.83 57.70 739.00 58.16 L 739.00 857.00 L 315.37 857.00 C 316.81 855.47 318.16 853.86 319.50 852.24 C 317.38 853.83 315.30 855.48 313.12 857.00 L 0.00 857.00 L 0.00 0.00 Z" />
<path fill="#f9f9f9" d=" M 35.10 26.39 C 36.77 26.78 35.69 29.34 34.23 28.94 C 32.56 28.54 33.67 26.04 35.10 26.39 Z" />
<path fill="#fafafa" d=" M 736.10 55.38 C 737.55 54.59 738.48 56.58 739.00 57.62 L 739.00 58.16 C 737.83 57.70 735.32 57.10 736.10 55.38 Z" />
<path fill="#f4f5f5" d=" M 354.14 107.13 C 355.66 107.57 354.58 109.85 353.25 109.26 C 351.72 108.81 352.84 106.62 354.14 107.13 Z" />
<path fill="#f3f3f4" d=" M 422.42 119.88 C 425.16 117.79 428.18 116.12 431.41 114.91 C 428.74 117.10 425.69 118.76 422.42 119.88 Z" />
<path fill="#edeeee" d=" M 435.31 123.10 C 436.92 123.52 436.92 127.48 435.31 127.90 C 434.26 126.64 434.26 124.36 435.31 123.10 Z" />
<path fill="#f5f6f6" d=" M 327.13 123.11 C 328.44 123.78 328.43 124.46 327.11 125.14 C 325.81 124.47 325.82 123.80 327.13 123.11 Z" />
<path fill="#f5f5f6" d=" M 302.13 139.11 C 303.44 139.78 303.43 140.46 302.11 141.14 C 300.81 140.47 300.82 139.80 302.13 139.11 Z" />
<path fill="#f6f6f6" d=" M 259.13 170.11 C 260.44 170.78 260.43 171.46 259.11 172.14 C 257.81 171.47 257.82 170.79 259.13 170.11 Z" />
<path fill="#f1f1f1" d=" M 307.13 188.11 C 308.44 188.78 308.43 189.46 307.11 190.14 C 305.81 189.47 305.82 188.79 307.13 188.11 Z" />
<path fill="#f7f7f7" d=" M 620.15 366.40 C 624.14 365.58 619.29 370.38 620.15 366.40 Z" />
<path fill="#f7f7f7" d=" M 624.15 372.40 C 628.14 371.58 623.29 376.38 624.15 372.40 Z" />
<path fill="#ebebeb" d=" M 72.12 426.54 C 76.06 427.30 69.82 429.96 72.12 426.54 Z" />
<path fill="#ebebeb" d=" M 67.12 559.54 C 71.06 560.30 64.82 562.96 67.12 559.54 Z" />
<path fill="#f2f2f2" d=" M 107.15 667.67 C 108.35 666.85 109.61 668.92 108.47 669.71 C 107.23 670.57 105.95 668.46 107.15 667.67 Z" />
<path fill="#f8f8f8" d=" M 122.15 690.40 C 126.14 689.58 121.30 694.38 122.15 690.40 Z" />
<path fill="#f2f2f2" d=" M 138.35 710.67 C 139.48 709.62 141.37 711.51 140.33 712.65 C 139.18 713.73 137.26 711.81 138.35 710.67 Z" />
<path fill="#f6f6f6" d=" M 575.13 747.11 C 576.43 747.77 576.43 748.45 575.11 749.14 C 573.81 748.46 573.81 747.79 575.13 747.11 Z" />
<path fill="#f6f6f6" d=" M 28.12 770.58 C 30.01 771.53 27.31 774.65 25.79 773.55 C 25.07 772.19 26.77 770.55 28.12 770.58 Z" />
<path fill="#f5f6f6" d=" M 214.15 773.40 C 218.14 772.58 213.30 777.38 214.15 773.40 Z" />
<path fill="#f3f4f3" d=" M 359.02 773.22 C 359.56 772.13 361.43 772.13 361.98 773.22 C 362.34 775.03 358.65 775.03 359.02 773.22 Z" />
<path fill="#f3f4f3" d=" M 528.04 778.39 C 529.98 779.42 526.99 781.98 525.77 780.58 C 525.05 779.29 526.86 778.02 528.04 778.39 Z" />
<path fill="#ececec" d=" M 313.54 811.12 C 314.94 808.93 316.69 813.02 314.10 812.41 C 313.96 812.09 313.68 811.44 313.54 811.12 Z" />
<path fill="#f5f6f6" d=" M 406.15 832.40 C 410.14 831.57 405.29 836.38 406.15 832.40 Z" />
<path fill="#f8f8f8" d=" M 313.12 857.00 C 315.30 855.48 317.38 853.83 319.50 852.24 C 318.16 853.86 316.81 855.47 315.37 857.00 L 313.12 857.00 Z" />
<path fill="#f5f5f6" d=" M 427.15 853.40 C 431.14 852.57 426.29 857.38 427.15 853.40 Z" />
</svg>
